<svg width="135" height="40" viewBox="0 0 135 40" fill="none" xmlns="http://www.w3.org/2000/svg">
<g clip-path="url(#clip0_630_345)">
<mask id="mask0_630_345" style="mask-type:luminance" maskUnits="userSpaceOnUse" x="0" y="0" width="135" height="40">
<path d="M135 0H0V40H135V0Z" fill="white"/>
</mask>
<g mask="url(#mask0_630_345)">
<path d="M124.249 0.00013H10.7566C10.3429 0.00013 9.9342 0.00013 9.5216 0.00213C9.17621 0.00413 8.83358 0.00994 8.48488 0.01483C7.72733 0.0227318 6.97157 0.0818063 6.22416 0.19154C5.4778 0.303663 4.75482 0.515046 4.07967 0.81854C3.40534 1.1246 2.7892 1.5223 2.25357 1.9972C1.71514 2.47077 1.26632 3.01815 0.924356 3.61829C0.581453 4.21724 0.343683 4.85907 0.219258 5.52161C0.0936495 6.18332 0.0260586 6.85265 0.0170916 7.52361C0.00662229 7.83021 0.00551669 8.13783 0 8.44447V31.5587C0.00551669 31.8692 0.00662229 32.17 0.0170916 32.4806C0.0260614 33.1516 0.0936522 33.8209 0.219258 34.4825C0.343339 35.1455 0.581124 35.7877 0.924356 36.3868C1.26616 36.985 1.71505 37.5302 2.25357 38.0011C2.78717 38.4781 3.40371 38.8761 4.07967 39.1798C4.75481 39.4841 5.47772 39.6968 6.22416 39.8106C6.9717 39.9195 7.72738 39.9786 8.48488 39.9874C8.83358 39.9942 9.17621 39.9981 9.5216 39.9981C9.93419 40.0001 10.343 40.0001 10.7566 40.0001H124.249C124.655 40.0001 125.067 40.0001 125.472 39.9981C125.816 39.9981 126.169 39.9942 126.512 39.9874C127.268 39.9791 128.023 39.92 128.769 39.8106C129.518 39.696 130.243 39.4834 130.921 39.1798C131.597 38.8759 132.213 38.478 132.746 38.0011C133.283 37.5284 133.733 36.9836 134.079 36.3868C134.42 35.7872 134.655 35.1451 134.777 34.4825C134.903 33.8208 134.973 33.1516 134.987 32.4806C134.991 32.17 134.991 31.8692 134.991 31.5587C135 31.1954 135 30.8341 135 30.4649V9.53626C135 9.17005 135 8.80677 134.991 8.44447C134.991 8.13783 134.991 7.83021 134.987 7.52357C134.973 6.85255 134.903 6.18337 134.777 5.52157C134.655 4.85941 134.419 4.21763 134.079 3.61825C133.383 2.41533 132.278 1.43616 130.921 0.81845C130.243 0.515697 129.518 0.30437 128.769 0.19145C128.023 0.0812328 127.269 0.0221378 126.512 0.01469C126.169 0.00981 125.816 0.00395 125.472 0.002C125.067 0 124.655 0.00013 124.249 0.00013Z" fill="white"/>
<path d="M9.42806 39.1281C9.08374 39.1281 8.74774 39.1242 8.40612 39.1174C7.69842 39.1093 6.99238 39.0547 6.29379 38.9543C5.64238 38.855 5.01135 38.6703 4.4215 38.4063C3.83705 38.1444 3.30399 37.8011 2.84274 37.3895C2.37481 36.9826 1.98523 36.5108 1.68945 35.9927C1.39041 35.4711 1.18346 34.9121 1.0758 34.3351C0.959541 33.7151 0.89664 33.0882 0.887639 32.4597C0.880474 32.2488 0.871094 31.5464 0.871094 31.5464V8.44104C0.871094 8.44104 0.881085 7.74949 0.887696 7.54631C0.896314 6.91886 0.95885 6.2929 1.07476 5.67385C1.18262 5.09525 1.38973 4.53463 1.68893 4.0114C1.98362 3.49361 2.37104 3.02143 2.83615 2.61316C3.30074 2.20102 3.8355 1.85593 4.42094 1.59048C5.00944 1.32731 5.63928 1.14391 6.28937 1.04642C6.99026 0.944969 7.69875 0.890117 8.4089 0.88233L9.42861 0.870117H125.568L126.6 0.88282C127.304 0.890221 128.006 0.944583 128.7 1.04544C129.357 1.14415 129.993 1.32883 130.588 1.59341C131.761 2.12837 132.716 2.97472 133.318 4.01384C133.612 4.53346 133.816 5.08951 133.922 5.66311C134.04 6.28724 134.105 6.91812 134.119 7.55071C134.122 7.83397 134.122 8.13824 134.122 8.44104C134.131 8.81612 134.131 9.17312 134.131 9.53306V30.4661C134.131 30.8295 134.131 31.1841 134.122 31.5415C134.122 31.8668 134.122 32.1648 134.118 32.4714C134.104 33.0927 134.04 33.7123 133.925 34.3253C133.819 34.9065 133.613 35.4699 133.314 35.9957C133.016 36.5082 132.629 36.9759 132.167 37.3817C131.705 37.7955 131.171 38.1409 130.585 38.4044C129.991 38.6704 129.356 38.8558 128.7 38.9543C128.002 39.0553 127.295 39.1098 126.588 39.1174C126.257 39.1242 125.91 39.1281 125.574 39.1281L124.348 39.1301L9.42806 39.1281Z" fill="#101828"/>
<path d="M32.7973 20.3008C32.8081 19.4662 33.0298 18.6478 33.4418 17.9218C33.8538 17.1959 34.4428 16.5859 35.1539 16.1488C34.7021 15.5036 34.1062 14.9727 33.4134 14.5981C32.7205 14.2236 31.9499 14.0157 31.1627 13.9911C29.4835 13.8148 27.8555 14.9959 26.9998 14.9959C26.1275 14.9959 24.81 14.0086 23.3913 14.0378C22.4736 14.0674 21.5793 14.3343 20.7954 14.8123C20.0115 15.2904 19.3649 15.9633 18.9184 16.7656C16.9844 20.1141 18.427 25.0351 20.2796 27.7417C21.2065 29.0671 22.2898 30.5475 23.7072 30.495C25.0943 30.4375 25.6123 29.6105 27.2866 29.6105C28.9454 29.6105 29.4314 30.495 30.8776 30.4616C32.366 30.4375 33.3038 29.1304 34.1981 27.7925C34.8641 26.8481 35.3766 25.8044 35.7166 24.7C34.8518 24.3343 34.1139 23.7221 33.5948 22.9398C33.0757 22.1575 32.7983 21.2397 32.7973 20.3008Z" fill="white"/>
<path d="M30.0669 12.2108C30.8784 11.2366 31.2782 9.98445 31.1814 8.72021C29.9416 8.85044 28.7963 9.44299 27.9738 10.3798C27.5717 10.8375 27.2637 11.3699 27.0674 11.9467C26.8712 12.5235 26.7905 13.1333 26.8301 13.7412C27.4502 13.7476 28.0638 13.6132 28.6244 13.3481C29.1851 13.083 29.6783 12.6942 30.0669 12.2108Z" fill="white"/>
<path d="M50.332 27.1397H45.5986L44.4619 30.4961H42.457L46.9404 18.0781H49.0234L53.5068 30.4961H51.4677L50.332 27.1397ZM46.0888 25.5908H49.8408L47.9912 20.1436H47.9394L46.0888 25.5908Z" fill="white"/>
<path d="M63.1885 25.9699C63.1885 28.7834 61.6827 30.591 59.4102 30.591C58.8345 30.6211 58.262 30.4885 57.7582 30.2084C57.2544 29.9283 56.8397 29.5119 56.5616 29.007H56.5186V33.4914H54.6602V21.4426H56.459V22.9485H56.4932C56.7842 22.446 57.2059 22.0318 57.7135 21.7499C58.2211 21.4681 58.7957 21.3291 59.376 21.3479C61.6738 21.3479 63.1885 23.1643 63.1885 25.9699ZM61.2784 25.9699C61.2784 24.1369 60.3311 22.9319 58.8858 22.9319C57.4658 22.9319 56.5108 24.1623 56.5108 25.9699C56.5108 27.7942 57.4658 29.0158 58.8858 29.0158C60.3311 29.0158 61.2784 27.8196 61.2784 25.9699Z" fill="white"/>
<path d="M73.1534 25.9699C73.1534 28.7834 71.6475 30.591 69.375 30.591C68.7994 30.6211 68.2269 30.4885 67.7231 30.2084C67.2193 29.9283 66.8046 29.5119 66.5264 29.007H66.4834V33.4914H64.625V21.4426H66.4238V22.9484H66.458C66.749 22.446 67.1707 22.0318 67.6783 21.7499C68.186 21.4681 68.7605 21.3291 69.3408 21.3479C71.6387 21.3479 73.1534 23.1643 73.1534 25.9699ZM71.2432 25.9699C71.2432 24.1369 70.2959 22.9318 68.8506 22.9318C67.4307 22.9318 66.4756 24.1623 66.4756 25.9699C66.4756 27.7942 67.4307 29.0158 68.8506 29.0158C70.2959 29.0158 71.2432 27.8195 71.2432 25.9699Z" fill="white"/>
<path d="M79.7383 27.0362C79.876 28.2676 81.0723 29.0762 82.707 29.0762C84.2735 29.0762 85.4004 28.2676 85.4004 27.1572C85.4004 26.1934 84.7207 25.6162 83.1113 25.2207L81.502 24.833C79.2217 24.2822 78.1631 23.2158 78.1631 21.4854C78.1631 19.3428 80.0303 17.8711 82.6817 17.8711C85.3057 17.8711 87.1045 19.3428 87.165 21.4854H85.289C85.1768 20.2461 84.1523 19.4981 82.6553 19.4981C81.1582 19.4981 80.1338 20.2549 80.1338 21.3565C80.1338 22.2344 80.7881 22.751 82.3887 23.1465L83.7568 23.4824C86.3047 24.0849 87.3633 25.1084 87.3633 26.9248C87.3633 29.248 85.5127 30.7031 82.5693 30.7031C79.8154 30.7031 77.956 29.2822 77.8359 27.0361L79.7383 27.0362Z" fill="white"/>
<path d="M91.375 19.2998V21.4424H93.0967V22.9141H91.375V27.9053C91.375 28.6807 91.7198 29.042 92.4766 29.042C92.681 29.0384 92.885 29.0241 93.0879 28.999V30.4619C92.7476 30.5255 92.4018 30.5543 92.0557 30.5478C90.2227 30.5478 89.5078 29.8593 89.5078 28.1035V22.9141H88.1914V21.4424H89.5078V19.2998H91.375Z" fill="white"/>
<path d="M94.0938 25.9697C94.0938 23.1211 95.7714 21.3311 98.3877 21.3311C101.012 21.3311 102.682 23.1211 102.682 25.9697C102.682 28.8262 101.021 30.6084 98.3877 30.6084C95.7548 30.6084 94.0938 28.8262 94.0938 25.9697ZM100.789 25.9697C100.789 24.0156 99.8935 22.8623 98.3877 22.8623C96.8818 22.8623 95.9874 24.0244 95.9874 25.9697C95.9874 27.9316 96.8818 29.0762 98.3877 29.0762C99.8935 29.0762 100.789 27.9316 100.789 25.9697Z" fill="white"/>
<path d="M104.215 21.4425H105.988V22.9835H106.031C106.151 22.5022 106.433 22.0769 106.829 21.779C107.226 21.4811 107.713 21.3288 108.209 21.3478C108.423 21.347 108.636 21.3703 108.845 21.4171V23.1554C108.575 23.0728 108.293 23.0348 108.01 23.0431C107.74 23.0321 107.471 23.0797 107.221 23.1826C106.972 23.2855 106.747 23.4412 106.563 23.6391C106.379 23.837 106.24 24.0724 106.156 24.3291C106.071 24.5857 106.043 24.8576 106.074 25.1261V30.4962H104.215V21.4425Z" fill="white"/>
<path d="M117.413 27.8369C117.163 29.4805 115.562 30.6084 113.514 30.6084C110.88 30.6084 109.246 28.8437 109.246 26.0127C109.246 23.1729 110.889 21.3311 113.436 21.3311C115.941 21.3311 117.516 23.0518 117.516 25.7969V26.4336H111.122V26.5459C111.092 26.8791 111.134 27.2148 111.244 27.5306C111.354 27.8464 111.53 28.1352 111.761 28.3778C111.991 28.6203 112.27 28.8111 112.58 28.9374C112.89 29.0637 113.223 29.1226 113.557 29.1103C113.996 29.1515 114.437 29.0498 114.814 28.8203C115.191 28.5909 115.483 28.246 115.648 27.8369H117.413ZM111.13 25.1348H115.657C115.674 24.8352 115.628 24.5354 115.523 24.2541C115.419 23.9729 115.257 23.7164 115.049 23.5006C114.84 23.2849 114.589 23.1145 114.312 23.0003C114.034 22.8861 113.736 22.8305 113.436 22.8369C113.134 22.8351 112.834 22.8933 112.553 23.008C112.273 23.1227 112.019 23.2918 111.805 23.5054C111.59 23.7191 111.42 23.973 111.305 24.2527C111.189 24.5323 111.13 24.8321 111.13 25.1348Z" fill="white"/>
<path d="M45.8545 8.73089C46.2441 8.70293 46.6351 8.76179 46.9992 8.90323C47.3633 9.04466 47.6915 9.26514 47.9601 9.54876C48.2287 9.83239 48.431 10.1721 48.5524 10.5434C48.6738 10.9146 48.7113 11.3082 48.6621 11.6957C48.6621 13.602 47.6319 14.6977 45.8545 14.6977H43.6992V8.73089H45.8545ZM44.626 13.8539H45.751C46.0294 13.8705 46.308 13.8249 46.5665 13.7203C46.8251 13.6157 47.057 13.4547 47.2455 13.2491C47.434 13.0436 47.5743 12.7986 47.6562 12.532C47.738 12.2653 47.7594 11.9838 47.7188 11.7079C47.7565 11.4331 47.7329 11.1533 47.6498 10.8886C47.5667 10.624 47.4261 10.381 47.238 10.177C47.0499 9.9731 46.8191 9.81329 46.562 9.70905C46.3049 9.60481 46.028 9.55873 45.751 9.5741H44.626V13.8539Z" fill="white"/>
<path d="M49.7092 12.4443C49.6809 12.1484 49.7148 11.8498 49.8086 11.5677C49.9024 11.2857 50.0542 11.0263 50.2541 10.8063C50.4541 10.5864 50.6978 10.4106 50.9696 10.2903C51.2415 10.17 51.5355 10.1079 51.8327 10.1079C52.13 10.1079 52.424 10.17 52.6959 10.2903C52.9677 10.4106 53.2114 10.5864 53.4114 10.8063C53.6113 11.0263 53.7631 11.2857 53.8569 11.5677C53.9507 11.8498 53.9846 12.1484 53.9563 12.4443C53.9851 12.7405 53.9517 13.0395 53.8581 13.322C53.7645 13.6045 53.6128 13.8644 53.4128 14.0848C53.2128 14.3052 52.9689 14.4813 52.6968 14.6019C52.4247 14.7224 52.1304 14.7847 51.8327 14.7847C51.5351 14.7847 51.2408 14.7224 50.9687 14.6019C50.6965 14.4813 50.4526 14.3052 50.2527 14.0848C50.0527 13.8644 49.901 13.6045 49.8074 13.322C49.7138 13.0395 49.6804 12.7405 49.7092 12.4443ZM53.0422 12.4443C53.0422 11.4682 52.6037 10.8974 51.8342 10.8974C51.0618 10.8974 50.6272 11.4682 50.6272 12.4443C50.6272 13.4282 51.0618 13.9946 51.8342 13.9946C52.6038 13.9946 53.0422 13.4243 53.0422 12.4443Z" fill="white"/>
<path d="M59.6016 14.6978H58.6797L57.749 11.3813H57.6787L56.752 14.6978H55.8389L54.5977 10.1948H55.499L56.3057 13.6308H56.3721L57.2979 10.1948H58.1504L59.0762 13.6308H59.1465L59.9492 10.1948H60.8379L59.6016 14.6978Z" fill="white"/>
<path d="M61.8828 10.1949H62.7382V10.9102H62.8046C62.9173 10.6533 63.1073 10.4379 63.3482 10.2941C63.589 10.1503 63.8688 10.0852 64.1484 10.1079C64.3675 10.0915 64.5875 10.1245 64.7921 10.2046C64.9967 10.2847 65.1806 10.4098 65.3303 10.5707C65.48 10.7315 65.5916 10.924 65.6568 11.1338C65.722 11.3436 65.7391 11.5654 65.707 11.7827V14.6977H64.8183V12.0059C64.8183 11.2823 64.5039 10.9224 63.8466 10.9224C63.6979 10.9155 63.5494 10.9408 63.4113 10.9966C63.2733 11.0525 63.1489 11.1375 63.0468 11.2459C62.9447 11.3543 62.8672 11.4834 62.8196 11.6246C62.7721 11.7657 62.7557 11.9154 62.7714 12.0635V14.6978H61.8828V10.1949Z" fill="white"/>
<path d="M67.1211 8.43701H68.0098V14.6978H67.1211V8.43701Z" fill="white"/>
<path d="M69.2444 12.4444C69.2161 12.1484 69.25 11.8499 69.3438 11.5678C69.4377 11.2857 69.5895 11.0263 69.7895 10.8064C69.9894 10.5864 70.2331 10.4106 70.505 10.2903C70.7769 10.17 71.0709 10.1079 71.3682 10.1079C71.6655 10.1079 71.9595 10.17 72.2313 10.2903C72.5032 10.4106 72.7469 10.5864 72.9469 10.8064C73.1469 11.0263 73.2986 11.2857 73.3925 11.5678C73.4864 11.8499 73.5202 12.1484 73.492 12.4444C73.5208 12.7406 73.4873 13.0396 73.3937 13.3221C73.3 13.6046 73.1483 13.8645 72.9483 14.0849C72.7483 14.3053 72.5044 14.4814 72.2323 14.6019C71.9601 14.7225 71.6658 14.7847 71.3682 14.7847C71.0705 14.7847 70.7762 14.7225 70.5041 14.6019C70.2319 14.4814 69.988 14.3053 69.788 14.0849C69.588 13.8645 69.4363 13.6046 69.3427 13.3221C69.2491 13.0396 69.2156 12.7406 69.2444 12.4444ZM72.5774 12.4444C72.5774 11.4683 72.1389 10.8975 71.3694 10.8975C70.5969 10.8975 70.1624 11.4683 70.1624 12.4444C70.1624 13.4283 70.597 13.9947 71.3694 13.9947C72.1389 13.9947 72.5774 13.4244 72.5774 12.4444Z" fill="white"/>
<path d="M74.4297 13.4243C74.4297 12.6138 75.0332 12.1465 76.1045 12.0801L77.3243 12.0098V11.6211C77.3243 11.1455 77.0098 10.877 76.4024 10.877C75.9063 10.877 75.5625 11.0591 75.4639 11.3774H74.6035C74.6944 10.604 75.4219 10.1079 76.4434 10.1079C77.5723 10.1079 78.209 10.6699 78.209 11.6211V14.6978H77.3535V14.0649H77.2832C77.1405 14.2919 76.9401 14.477 76.7025 14.6012C76.4649 14.7254 76.1985 14.7843 75.9307 14.7719C75.7417 14.7916 75.5506 14.7714 75.3698 14.7127C75.1891 14.654 75.0226 14.5581 74.8812 14.4311C74.7398 14.3042 74.6266 14.149 74.5488 13.9756C74.471 13.8021 74.4305 13.6144 74.4297 13.4243ZM77.3243 13.0395V12.6631L76.2246 12.7334C75.6045 12.7749 75.3233 12.9858 75.3233 13.3828C75.3233 13.7881 75.6748 14.0239 76.1583 14.0239C76.2999 14.0382 76.443 14.0239 76.579 13.9819C76.715 13.9398 76.8412 13.8707 76.9499 13.7789C77.0587 13.6871 77.1479 13.5743 77.2122 13.4473C77.2765 13.3202 77.3146 13.1816 77.3243 13.0395Z" fill="white"/>
<path d="M79.375 12.4444C79.375 11.0215 80.1064 10.1201 81.2441 10.1201C81.5255 10.1072 81.8048 10.1746 82.0494 10.3145C82.2939 10.4544 82.4935 10.661 82.625 10.9101H82.6914V8.43701H83.5801V14.6978H82.7285V13.9863H82.6582C82.5166 14.2338 82.31 14.4378 82.0607 14.5763C81.8115 14.7148 81.5291 14.7825 81.2441 14.772C80.0986 14.772 79.375 13.8706 79.375 12.4444ZM80.293 12.4444C80.293 13.3994 80.7432 13.9741 81.4961 13.9741C82.2451 13.9741 82.708 13.3911 82.708 12.4483C82.708 11.5098 82.2403 10.9185 81.4961 10.9185C80.748 10.9185 80.293 11.4971 80.293 12.4444Z" fill="white"/>
<path d="M87.26 12.4443C87.2317 12.1484 87.2656 11.8498 87.3594 11.5677C87.4532 11.2857 87.605 11.0263 87.805 10.8063C88.0049 10.5864 88.2486 10.4106 88.5204 10.2903C88.7923 10.17 89.0863 10.1079 89.3836 10.1079C89.6808 10.1079 89.9748 10.17 90.2467 10.2903C90.5185 10.4106 90.7622 10.5864 90.9622 10.8063C91.1621 11.0263 91.3139 11.2857 91.4077 11.5677C91.5016 11.8498 91.5354 12.1484 91.5071 12.4443C91.5359 12.7405 91.5025 13.0395 91.4089 13.322C91.3153 13.6045 91.1636 13.8644 90.9636 14.0848C90.7637 14.3052 90.5198 14.4813 90.2476 14.6019C89.9755 14.7224 89.6812 14.7847 89.3836 14.7847C89.0859 14.7847 88.7916 14.7224 88.5195 14.6019C88.2474 14.4813 88.0035 14.3052 87.8035 14.0848C87.6035 13.8644 87.4518 13.6045 87.3582 13.322C87.2646 13.0395 87.2312 12.7405 87.26 12.4443ZM90.593 12.4443C90.593 11.4682 90.1545 10.8974 89.385 10.8974C88.6126 10.8974 88.178 11.4682 88.178 12.4443C88.178 13.4282 88.6126 13.9946 89.385 13.9946C90.1546 13.9946 90.593 13.4243 90.593 12.4443Z" fill="white"/>
<path d="M92.6992 10.1949H93.5546V10.9102H93.6211C93.7337 10.6533 93.9237 10.4379 94.1646 10.2941C94.4055 10.1503 94.6852 10.0852 94.9648 10.1079C95.1839 10.0915 95.4039 10.1245 95.6085 10.2046C95.8131 10.2847 95.9971 10.4098 96.1467 10.5707C96.2964 10.7315 96.408 10.924 96.4732 11.1338C96.5384 11.3436 96.5556 11.5654 96.5234 11.7827V14.6977H95.6347V12.0059C95.6347 11.2823 95.3203 10.9224 94.6631 10.9224C94.5143 10.9155 94.3658 10.9408 94.2277 10.9966C94.0897 11.0525 93.9653 11.1375 93.8632 11.2459C93.7611 11.3543 93.6836 11.4834 93.6361 11.6246C93.5885 11.7657 93.5721 11.9154 93.5878 12.0635V14.6978H92.6992V10.1949Z" fill="white"/>
<path d="M101.542 9.07373V10.2153H102.517V10.9639H101.542V13.2793C101.542 13.751 101.736 13.9575 102.178 13.9575C102.292 13.9572 102.405 13.9503 102.517 13.937V14.6772C102.358 14.7058 102.196 14.721 102.034 14.7226C101.045 14.7226 100.652 14.375 100.652 13.5068V10.9638H99.9375V10.2153H100.652V9.07373H101.542Z" fill="white"/>
<path d="M103.734 8.43701H104.615V10.9185H104.685C104.803 10.6591 104.999 10.4425 105.244 10.2982C105.49 10.1539 105.774 10.0888 106.058 10.1118C106.276 10.1 106.494 10.1364 106.696 10.2184C106.899 10.3004 107.08 10.4261 107.228 10.5864C107.377 10.7468 107.487 10.9378 107.553 11.146C107.619 11.3541 107.638 11.5742 107.609 11.7905V14.6978H106.719V12.0098C106.719 11.2905 106.384 10.9263 105.757 10.9263C105.604 10.9137 105.45 10.9347 105.306 10.9878C105.163 11.0408 105.032 11.1247 104.924 11.2334C104.816 11.3421 104.733 11.4732 104.681 11.6173C104.629 11.7614 104.609 11.9152 104.623 12.0679V14.6977H103.734V8.43701Z" fill="white"/>
<path d="M112.789 13.482C112.668 13.8935 112.406 14.2495 112.05 14.4877C111.693 14.7258 111.264 14.831 110.837 14.7847C110.541 14.7926 110.246 14.7357 109.973 14.6182C109.701 14.5007 109.457 14.3253 109.259 14.1041C109.062 13.883 108.914 13.6214 108.827 13.3376C108.741 13.0538 108.717 12.7545 108.757 12.4605C108.718 12.1656 108.742 11.8657 108.829 11.581C108.915 11.2964 109.062 11.0336 109.259 10.8105C109.456 10.5874 109.698 10.4093 109.97 10.2881C110.241 10.1669 110.536 10.1054 110.834 10.108C112.086 10.108 112.842 10.964 112.842 12.378V12.6881H109.663V12.7379C109.649 12.9031 109.67 13.0695 109.724 13.2262C109.778 13.383 109.864 13.5267 109.977 13.6481C110.09 13.7696 110.227 13.8661 110.379 13.9315C110.532 13.9969 110.696 14.0297 110.862 14.0279C111.074 14.0534 111.29 14.0151 111.481 13.9179C111.671 13.8207 111.829 13.669 111.933 13.482H112.789ZM109.663 12.0308H111.937C111.948 11.8797 111.928 11.7279 111.877 11.5852C111.826 11.4425 111.746 11.312 111.641 11.2021C111.537 11.0923 111.411 11.0055 111.271 10.9473C111.131 10.8891 110.98 10.8609 110.829 10.8643C110.675 10.8624 110.522 10.8913 110.38 10.9492C110.238 11.0072 110.108 11.093 110 11.2017C109.891 11.3104 109.805 11.4398 109.747 11.5822C109.689 11.7246 109.661 11.8771 109.663 12.0308Z" fill="white"/>
</g>
</g>
<defs>
<clipPath id="clip0_630_345">
<rect width="135" height="40" fill="white"/>
</clipPath>
</defs>
</svg>
