<svg width="135" height="40" viewBox="0 0 135 40" fill="none" xmlns="http://www.w3.org/2000/svg">
<g clip-path="url(#clip0_630_375)">
<path d="M130 0H5C2.23858 0 0 2.23858 0 5V35C0 37.7614 2.23858 40 5 40H130C132.761 40 135 37.7614 135 35V5C135 2.23858 132.761 0 130 0Z" fill="#101828"/>
<path d="M130 0.7998C131.114 0.801086 132.181 1.24403 132.968 2.03145C133.756 2.81887 134.199 3.88646 134.2 5V35C134.199 36.1135 133.756 37.1811 132.968 37.9685C132.181 38.7559 131.114 39.1989 130 39.2002H5C3.88645 39.1989 2.81888 38.756 2.0315 37.9686C1.24412 37.1811 0.801231 36.1135 0.8 35V5C0.801212 3.88644 1.24409 2.81884 2.03148 2.03142C2.81886 1.244 3.88644 0.801065 5 0.7998H130ZM130 0H5C3.67511 0.0038781 2.40559 0.531908 1.46875 1.46875C0.531908 2.40559 0.0038781 3.67511 0 5V35C0.0038781 36.3249 0.531908 37.5944 1.46875 38.5312C2.40559 39.4681 3.67511 39.9961 5 40H130C131.325 39.9961 132.594 39.4681 133.531 38.5312C134.468 37.5944 134.996 36.3249 135 35V5C134.996 3.67511 134.468 2.40559 133.531 1.46875C132.594 0.531908 131.325 0.0038781 130 0Z" fill="white"/>
<path d="M47.4183 10.2433C47.4365 10.6103 47.3798 10.9771 47.2517 11.3214C47.1236 11.6658 46.9267 11.9804 46.6731 12.2462C46.3889 12.541 46.0456 12.7724 45.6658 12.9254C45.286 13.0784 44.8782 13.1494 44.469 13.1339C44.0572 13.1376 43.6489 13.059 43.2679 12.9026C42.887 12.7462 42.5411 12.5152 42.2507 12.2233C41.9603 11.9313 41.7312 11.5842 41.5768 11.2024C41.4225 10.8207 41.346 10.4119 41.3519 10.0001C41.3461 9.58837 41.4226 9.17959 41.5769 8.79781C41.7313 8.41603 41.9604 8.06895 42.2508 7.77695C42.5412 7.48496 42.887 7.25395 43.2679 7.09748C43.6489 6.94102 44.0572 6.86226 44.469 6.86584C44.8924 6.86456 45.3115 6.95016 45.7005 7.11734C46.0618 7.26378 46.3833 7.49348 46.639 7.78774L46.1116 8.31554C45.9106 8.07899 45.658 7.89178 45.3732 7.76834C45.0884 7.64491 44.779 7.58856 44.469 7.60364C44.1569 7.60202 43.8477 7.66341 43.5599 7.78412C43.2721 7.90483 43.0117 8.08239 42.7941 8.30615C42.5766 8.52991 42.4064 8.79527 42.2938 9.08635C42.1813 9.37743 42.1286 9.68823 42.139 10.0001C42.1316 10.4673 42.263 10.9262 42.5167 11.3186C42.7704 11.711 43.1349 12.0192 43.564 12.2041C43.9931 12.3891 44.4675 12.4425 44.9269 12.3575C45.3864 12.2725 45.8103 12.0529 46.1448 11.7267C46.4527 11.395 46.6312 10.9637 46.6477 10.5113H44.469V9.79064H47.3763C47.4038 9.93998 47.4178 10.0915 47.4183 10.2433Z" fill="white" stroke="white" stroke-width="0.2" stroke-miterlimit="10"/>
<path d="M52.0263 7.7373H49.2939V9.6396H51.7578V10.3604H49.2939V12.2627H52.0263V13H48.5234V7H52.0263V7.7373Z" fill="white" stroke="white" stroke-width="0.2" stroke-miterlimit="10"/>
<path d="M55.2793 13H54.5078V7.7373H52.832V7H56.9551V7.7373H55.2793V13Z" fill="white" stroke="white" stroke-width="0.2" stroke-miterlimit="10"/>
<path d="M59.9375 13V7H60.708V13H59.9375Z" fill="white" stroke="white" stroke-width="0.2" stroke-miterlimit="10"/>
<path d="M64.1269 13H63.3554V7.7373H61.6797V7H65.8027V7.7373H64.1269V13Z" fill="white" stroke="white" stroke-width="0.2" stroke-miterlimit="10"/>
<path d="M73.6082 12.2246C73.0242 12.8069 72.2332 13.1338 71.4085 13.1338C70.5838 13.1338 69.7928 12.8069 69.2088 12.2246C68.9199 11.932 68.6928 11.5843 68.5409 11.2021C68.3891 10.8199 68.3157 10.4111 68.325 10C68.3157 9.58891 68.3891 9.18011 68.5409 8.79795C68.6928 8.41578 68.9199 8.06805 69.2088 7.77542C69.4975 7.48669 69.8402 7.25772 70.2175 7.10162C70.5947 6.94552 70.9991 6.86536 71.4074 6.86572C71.8156 6.86609 72.2198 6.94697 72.5968 7.10373C72.9738 7.2605 73.3162 7.49008 73.6043 7.77932C73.8934 8.07118 74.121 8.41814 74.2735 8.79961C74.426 9.18107 74.5003 9.58929 74.492 10C74.5011 10.4111 74.4275 10.8198 74.2757 11.202C74.1239 11.5841 73.8969 11.9318 73.6082 12.2246ZM69.7781 11.7222C70.2106 12.154 70.7968 12.3965 71.408 12.3965C72.0192 12.3965 72.6054 12.154 73.0379 11.7222C73.2597 11.4951 73.4332 11.2255 73.5478 10.9294C73.6624 10.6334 73.7159 10.3173 73.7049 10C73.7159 9.68278 73.6624 9.36661 73.5478 9.0706C73.4332 8.7746 73.2597 8.5049 73.0379 8.27782C72.6054 7.84603 72.0192 7.60351 71.408 7.60351C70.7968 7.60351 70.2106 7.84603 69.7781 8.27782C69.5566 8.50508 69.3834 8.77483 69.269 9.07081C69.1545 9.36679 69.1011 9.68287 69.1121 10C69.1011 10.3172 69.1545 10.6333 69.269 10.9292C69.3834 11.2252 69.5566 11.495 69.7781 11.7222Z" fill="white" stroke="white" stroke-width="0.2" stroke-miterlimit="10"/>
<path d="M75.5742 13V7H76.5127L79.4287 11.6675H79.4619L79.4287 10.5112V7H80.2002V13H79.3955L76.3447 8.1064H76.3115L76.3447 9.2627V13H75.5742Z" fill="white" stroke="white" stroke-width="0.2" stroke-miterlimit="10"/>
<path d="M68.1374 21.7515C67.2969 21.7546 66.4762 22.0068 65.7789 22.4761C65.0816 22.9454 64.5389 23.6107 64.2195 24.3882C63.9 25.1656 63.8181 26.0203 63.9841 26.8443C64.15 27.6682 64.5563 28.4246 65.1518 29.0178C65.7473 29.611 66.5051 30.0144 67.3297 30.1772C68.1543 30.34 69.0087 30.2549 69.7849 29.9325C70.5611 29.6101 71.2244 29.0649 71.6911 28.3658C72.1577 27.6667 72.4067 26.8451 72.4067 26.0046C72.415 25.4424 72.3101 24.8843 72.0982 24.3635C71.8864 23.8427 71.572 23.3698 71.1737 22.973C70.7753 22.5762 70.3013 22.2636 69.7797 22.0537C69.258 21.8438 68.6996 21.7411 68.1374 21.7515ZM68.1374 28.5823C67.6198 28.6192 67.103 28.4994 66.6544 28.2385C66.2059 27.9776 65.8462 27.5877 65.6223 27.1195C65.3984 26.6514 65.3207 26.1267 65.3992 25.6137C65.4777 25.1007 65.7088 24.6233 66.0624 24.2435C66.4161 23.8637 66.8759 23.5992 67.382 23.4844C67.8881 23.3697 68.417 23.4099 68.8999 23.5999C69.3828 23.7899 69.7973 24.1209 70.0894 24.5498C70.3815 24.9787 70.5378 25.4856 70.5378 26.0046C70.5535 26.3324 70.5035 26.6601 70.3906 26.9683C70.2778 27.2765 70.1044 27.559 69.8808 27.7992C69.6571 28.0394 69.3876 28.2324 69.0882 28.3669C68.7888 28.5014 68.4655 28.5746 68.1374 28.5823ZM58.824 21.7515C57.9835 21.7546 57.1628 22.0068 56.4654 22.476C55.7681 22.9453 55.2255 23.6107 54.906 24.3881C54.5866 25.1656 54.5046 26.0202 54.6705 26.8442C54.8365 27.6682 55.2428 28.4245 55.8383 29.0177C56.4337 29.611 57.1916 30.0144 58.0162 30.1772C58.8408 30.34 59.6952 30.2549 60.4714 29.9325C61.2476 29.6101 61.9109 29.0649 62.3776 28.3659C62.8442 27.6668 63.0932 26.8451 63.0932 26.0046C63.1015 25.4424 62.9966 24.8843 62.7847 24.3635C62.5729 23.8427 62.2585 23.3698 61.8602 22.973C61.4619 22.5762 60.9878 22.2636 60.4662 22.0537C59.9446 21.8439 59.3861 21.7411 58.824 21.7515ZM58.824 28.5823C58.3064 28.6192 57.7896 28.4994 57.341 28.2385C56.8925 27.9776 56.5328 27.5877 56.3089 27.1195C56.085 26.6514 56.0073 26.1267 56.0858 25.6137C56.1643 25.1007 56.3954 24.6233 56.749 24.2435C57.1027 23.8637 57.5625 23.5992 58.0686 23.4844C58.5746 23.3697 59.1036 23.4099 59.5865 23.5999C60.0694 23.7899 60.4839 24.1209 60.776 24.5498C61.0681 24.9787 61.2244 25.4856 61.2244 26.0046C61.2401 26.3324 61.1901 26.6601 61.0773 26.9683C60.9644 27.2765 60.7911 27.559 60.5674 27.7992C60.3437 28.0394 60.0742 28.2324 59.7748 28.3669C59.4754 28.5014 59.1521 28.5746 58.824 28.5823ZM47.7452 23.0565V24.8608H52.0629C52.0006 25.7071 51.6543 26.5075 51.0801 27.1324C50.6474 27.5734 50.1271 27.9188 49.5527 28.1464C48.9783 28.3739 48.3625 28.4785 47.7452 28.4534C46.4832 28.4363 45.2786 27.9229 44.3922 27.0245C43.5058 26.126 43.0089 24.9146 43.0089 23.6525C43.0089 22.3903 43.5058 21.1789 44.3922 20.2805C45.2786 19.382 46.4832 18.8686 47.7452 18.8516C48.9574 18.8357 50.1269 19.2989 50.9996 20.1404L52.2723 18.8677C51.6769 18.2782 50.9697 17.8135 50.1923 17.5009C49.415 17.1883 48.583 17.034 47.7452 17.0472C46.8697 17.0344 46.0004 17.1958 45.1878 17.5221C44.3753 17.8483 43.6357 18.3328 43.012 18.9474C42.3884 19.5621 41.8932 20.2945 41.5551 21.1023C41.2171 21.91 41.043 22.7769 41.043 23.6525C41.043 24.5281 41.2171 25.3949 41.5551 26.2027C41.8932 27.0104 42.3884 27.7429 43.012 28.3575C43.6357 28.9721 44.3753 29.4566 45.1878 29.7828C46.0004 30.1091 46.8697 30.2705 47.7452 30.2578C48.6007 30.2932 49.4539 30.1464 50.2483 29.827C51.0427 29.5076 51.76 29.0229 52.3528 28.4051C53.4052 27.2563 53.9662 25.7413 53.9156 24.1842C53.9197 23.806 53.8873 23.4284 53.8188 23.0565H47.7452ZM93.0535 24.458C92.7979 23.6876 92.3113 23.0146 91.6599 22.5304C91.0085 22.0461 90.2239 21.7742 89.4125 21.7515C88.866 21.7549 88.3259 21.869 87.8248 22.0871C87.3238 22.3051 86.8721 22.6225 86.4971 23.02C86.1222 23.4176 85.8317 23.887 85.6433 24.4C85.455 24.913 85.3726 25.4588 85.4011 26.0046C85.3888 26.5637 85.4893 27.1197 85.6967 27.6391C85.904 28.1586 86.2139 28.6309 86.6079 29.0279C87.0019 29.4249 87.4719 29.7384 87.9897 29.9498C88.5076 30.1611 89.0627 30.2658 89.622 30.2578C90.3227 30.2616 91.0133 30.0914 91.6319 29.7624C92.2505 29.4335 92.7777 28.956 93.1662 28.3729L91.7163 27.4063C91.4991 27.767 91.1918 28.0651 90.8247 28.2712C90.4575 28.4774 90.0431 28.5846 89.622 28.5823C89.1887 28.5988 88.7604 28.4848 88.3927 28.255C88.025 28.0252 87.7348 27.6902 87.5598 27.2935L93.2469 24.9414L93.0535 24.458ZM87.2538 25.8758C87.2338 25.5662 87.2757 25.2558 87.3771 24.9626C87.4785 24.6694 87.6373 24.3994 87.8444 24.1684C88.0514 23.9374 88.3024 23.75 88.5827 23.6171C88.863 23.4843 89.167 23.4087 89.4769 23.3948C89.7996 23.3735 90.1214 23.4478 90.4022 23.6082C90.6829 23.7686 90.9103 24.0082 91.0558 24.297L87.2538 25.8758ZM82.63 30H84.4988V17.4984H82.63V30ZM79.569 22.702H79.5046C79.2205 22.3933 78.8737 22.1488 78.4876 21.9849C78.1014 21.821 77.6846 21.7414 77.2652 21.7515C76.1685 21.7981 75.1322 22.2666 74.3727 23.0591C73.6132 23.8517 73.1892 24.9069 73.1892 26.0046C73.1892 27.1023 73.6132 28.1576 74.3727 28.9501C75.1322 29.7426 76.1685 30.2111 77.2652 30.2578C77.6863 30.269 78.1047 30.1883 78.4915 30.0214C78.8782 29.8544 79.2239 29.6053 79.5046 29.2912H79.569V29.9034C79.569 31.5306 78.6991 32.4005 77.2974 32.4005C76.8303 32.3893 76.377 32.2393 75.9955 31.9696C75.6139 31.6999 75.3212 31.3227 75.1548 30.8861L73.5276 31.5628C73.8343 32.3094 74.3569 32.9475 75.0286 33.3953C75.7002 33.843 76.4902 34.0801 77.2974 34.076C79.4885 34.076 81.3412 32.7872 81.3412 29.6456V22.0092H79.569V22.702ZM77.4264 28.5823C76.7805 28.5275 76.1786 28.2322 75.74 27.7548C75.3015 27.2775 75.0581 26.6529 75.0581 26.0046C75.0581 25.3564 75.3015 24.7317 75.74 24.2544C76.1786 23.777 76.7805 23.4817 77.4264 23.427C77.7478 23.4427 78.0627 23.5229 78.3524 23.6629C78.642 23.8029 78.9006 23.9997 79.1126 24.2418C79.3245 24.4838 79.4856 24.7661 79.5862 25.0717C79.6867 25.3773 79.7247 25.7 79.6979 26.0207C79.723 26.3393 79.6836 26.6597 79.5821 26.9628C79.4805 27.2658 79.3189 27.5453 79.1068 27.7844C78.8947 28.0236 78.6366 28.2175 78.3479 28.3546C78.0592 28.4917 77.7458 28.5691 77.4264 28.5823ZM101.808 17.4986H97.3362V30H99.2019V25.2636H101.808C102.336 25.2925 102.864 25.2135 103.36 25.0315C103.856 24.8494 104.31 24.5681 104.694 24.2048C105.078 23.8414 105.383 23.4036 105.592 22.9181C105.801 22.4326 105.909 21.9096 105.909 21.3811C105.909 20.8525 105.801 20.3295 105.592 19.844C105.383 19.3585 105.078 18.9207 104.694 18.5573C104.31 18.194 103.856 17.9127 103.36 17.7306C102.864 17.5486 102.336 17.4696 101.808 17.4986ZM101.856 23.5238H99.2019V19.2385H101.856C102.141 19.2326 102.425 19.2836 102.69 19.3886C102.955 19.4937 103.196 19.6505 103.4 19.8501C103.604 20.0496 103.766 20.2878 103.876 20.5507C103.987 20.8136 104.044 21.0959 104.044 21.3811C104.044 21.6663 103.987 21.9486 103.876 22.2115C103.766 22.4744 103.604 22.7126 103.4 22.9121C103.196 23.1117 102.955 23.2686 102.69 23.3736C102.425 23.4786 102.141 23.5297 101.856 23.5238ZM113.388 21.7285C112.707 21.6887 112.029 21.8486 111.437 22.1886C110.846 22.5286 110.367 23.0338 110.058 23.6424L111.715 24.334C111.879 24.0319 112.128 23.7844 112.431 23.6215C112.734 23.4587 113.077 23.3877 113.42 23.4172C113.893 23.371 114.365 23.5143 114.733 23.8158C115.101 24.1173 115.334 24.5523 115.382 25.0255V25.1542C114.783 24.8358 114.114 24.6701 113.436 24.6717C111.651 24.6717 109.833 25.6528 109.833 27.4863C109.851 27.8727 109.945 28.2517 110.112 28.6007C110.279 28.9498 110.514 29.2619 110.803 29.5184C111.093 29.7749 111.431 29.9706 111.797 30.094C112.164 30.2173 112.552 30.2658 112.937 30.2365C113.407 30.2641 113.876 30.1653 114.294 29.9503C114.713 29.7354 115.066 29.4121 115.318 29.0142H115.382V29.9792H117.183V25.1864C117.183 22.9669 115.527 21.7285 113.388 21.7285ZM113.163 28.5799C112.551 28.5799 111.699 28.2744 111.699 27.5184C111.699 26.5535 112.76 26.1835 113.677 26.1835C114.273 26.1676 114.861 26.312 115.382 26.6017C115.313 27.1439 115.051 27.643 114.643 28.0066C114.235 28.3703 113.709 28.5739 113.163 28.5799ZM123.745 22.0019L121.606 27.4219H121.542L119.322 22.0019H117.312L120.641 29.5771L118.743 33.7909H120.689L125.82 22.0019H123.745ZM106.938 30H108.804V17.4986H106.938V30Z" fill="white"/>
<path d="M10.4352 7.53793C10.1073 7.93 9.9417 8.43263 9.97239 8.94283V31.0589C9.94161 31.5691 10.1072 32.0718 10.4352 32.4638L10.5092 32.5359L22.8982 20.147V19.8547L10.5092 7.46533L10.4352 7.53793Z" fill="url(#paint0_linear_630_375)"/>
<path d="M27.0278 24.2787L22.8984 20.1473V19.855L27.0288 15.7246L27.1219 15.7777L32.0147 18.5578C33.4123 19.3518 33.4123 20.651 32.0147 21.4455L27.1219 24.2256L27.0278 24.2787Z" fill="url(#paint1_linear_630_375)"/>
<path d="M27.1201 24.2249L22.8966 20.001L10.4336 32.4639C10.7184 32.715 11.082 32.8587 11.4616 32.8699C11.8411 32.8811 12.2126 32.7592 12.5117 32.5253L27.1201 24.2249Z" fill="url(#paint2_linear_630_375)"/>
<path d="M27.1201 15.7771L12.5117 7.47666C12.2126 7.24275 11.8411 7.12084 11.4616 7.13206C11.082 7.14327 10.7184 7.2869 10.4336 7.53806L22.8966 20.0011L27.1201 15.7771Z" fill="url(#paint3_linear_630_375)"/>
<path opacity="0.2" d="M27.027 24.1318L12.5117 32.3791C12.2241 32.5981 11.8731 32.7175 11.5117 32.7194C11.1503 32.7214 10.798 32.6057 10.5081 32.3898L10.4336 32.4643L10.5076 32.5364C10.7975 32.7524 11.1502 32.8677 11.5117 32.8657C11.8732 32.8638 12.2242 32.7443 12.5117 32.5252L27.1201 24.2248L27.027 24.1318Z" fill="#101828"/>
<path opacity="0.12" d="M10.4352 32.3185C10.1073 31.9264 9.94171 31.4238 9.97236 30.9136V31.0597C9.94169 31.5699 10.1073 32.0725 10.4352 32.4646L10.5097 32.3901L10.4352 32.3185Z" fill="#101828"/>
<path opacity="0.12" d="M32.0132 21.2988L27.0273 24.132L27.1204 24.225L32.0132 21.4449C32.301 21.32 32.5501 21.1202 32.7344 20.8663C32.9188 20.6125 33.0317 20.3138 33.0615 20.0015C32.9996 20.2843 32.8727 20.5488 32.6907 20.774C32.5087 20.9992 32.2767 21.1789 32.0132 21.2988Z" fill="#101828"/>
<path opacity="0.25" d="M12.5136 7.62334L32.0148 18.7033C32.2785 18.8232 32.5105 19.0029 32.6925 19.2282C32.8745 19.4535 33.0014 19.7182 33.0631 20.0011C33.0336 19.6887 32.9207 19.3899 32.7363 19.1359C32.5519 18.8819 32.3028 18.6821 32.0148 18.5572L12.5136 7.47724C11.116 6.68314 9.97266 7.34274 9.97266 8.94354V9.08964C9.97266 7.48894 11.116 6.82934 12.5136 7.62334Z" fill="white"/>
</g>
<defs>
<linearGradient id="paint0_linear_630_375" x1="21.7995" y1="8.70964" x2="5.01712" y2="25.4921" gradientUnits="userSpaceOnUse">
<stop stop-color="#00A0FF"/>
<stop offset="0.00657" stop-color="#00A1FF"/>
<stop offset="0.2601" stop-color="#00BEFF"/>
<stop offset="0.5122" stop-color="#00D2FF"/>
<stop offset="0.7604" stop-color="#00DFFF"/>
<stop offset="1" stop-color="#00E3FF"/>
</linearGradient>
<linearGradient id="paint1_linear_630_375" x1="33.8344" y1="20.0017" x2="9.63754" y2="20.0017" gradientUnits="userSpaceOnUse">
<stop stop-color="#FFE000"/>
<stop offset="0.4087" stop-color="#FFBD00"/>
<stop offset="0.7754" stop-color="#FFA500"/>
<stop offset="1" stop-color="#FF9C00"/>
</linearGradient>
<linearGradient id="paint2_linear_630_375" x1="24.8252" y1="22.2961" x2="2.06686" y2="45.0544" gradientUnits="userSpaceOnUse">
<stop stop-color="#FF3A44"/>
<stop offset="1" stop-color="#C31162"/>
</linearGradient>
<linearGradient id="paint3_linear_630_375" x1="7.29552" y1="0.176236" x2="17.4581" y2="10.3388" gradientUnits="userSpaceOnUse">
<stop stop-color="#32A071"/>
<stop offset="0.0685" stop-color="#2DA771"/>
<stop offset="0.4762" stop-color="#15CF74"/>
<stop offset="0.8009" stop-color="#06E775"/>
<stop offset="1" stop-color="#00F076"/>
</linearGradient>
<clipPath id="clip0_630_375">
<rect width="135" height="40" fill="white"/>
</clipPath>
</defs>
</svg>
