<svg width="358" height="118" viewBox="0 0 358 118" fill="none" xmlns="http://www.w3.org/2000/svg">
<g clip-path="url(#clip0_4_1625)">
<path fill-rule="evenodd" clip-rule="evenodd" d="M0 21.5872C0 5.83355 15.5327 0.00867773 28.8276 0.00867773C43.4389 0.00867773 58.1817 5.83355 58.1817 14.7033C58.1817 19.2043 55.1543 23.1758 50.152 23.1758C42.6492 23.1758 42.3859 14.3061 30.2755 14.3061C23.5623 14.3061 19.2184 16.1595 19.2184 20.2634C19.2184 24.7644 23.5623 25.8235 29.4857 27.1473L37.5153 29.0007C48.4408 31.516 61.4724 36.1494 61.4724 49.6524C61.4724 65.4063 46.3349 72.6872 31.8551 72.6872C14.4796 72.6872 0 64.8765 0 55.3451C0 51.1089 2.36939 47.2697 7.76633 47.2697C16.0592 47.2697 16.849 59.1843 31.0653 59.1843C37.9102 59.1843 42.2541 56.1396 42.2541 52.1678C42.2541 47.2697 38.0419 46.4756 31.197 44.7544L19.8765 41.9743C8.68778 39.1943 0 34.5608 0 21.5872ZM83.192 62.229L69.1071 16.1595C68.4492 14.0414 67.7909 11.9232 67.7909 9.01076C67.7909 3.98019 72.2663 0.00867773 77.1368 0.00867773C84.245 0.00867773 85.2979 3.84781 86.6145 9.40794L96.7501 51.7709H97.0134L105.175 13.247C106.754 5.7012 108.334 -0.25609 117.285 0.00867773C126.367 -0.25609 128.21 5.5688 129.922 13.247L138.215 51.7709H138.478L147.955 9.40794C149.14 3.84781 150.325 0.00867773 157.433 0.00867773C162.303 0.00867773 166.779 3.98019 166.779 9.01076C166.779 11.9232 166.12 14.0414 165.463 16.1595L151.378 62.229C148.613 71.3637 146.507 72.6872 138.872 72.6872C130.843 72.6872 128.869 70.3044 126.894 62.6263L117.416 24.632H117.153L107.675 62.6263C105.701 70.3044 103.727 72.6872 95.6972 72.6872C88.0625 72.6872 85.9562 71.3637 83.192 62.229ZM177.178 63.0232V9.67269C177.178 4.50973 179.284 0.00867773 186.787 0.00867773C194.29 0.00867773 196.396 4.50973 196.396 9.67269V63.0232C196.396 68.1864 194.29 72.6872 186.787 72.6872C179.284 72.6872 177.178 68.1864 177.178 63.0232ZM212.719 88.7058V9.14315C212.719 3.18589 215.483 0.00867773 221.406 0.00867773C227.066 0.00867773 230.094 3.18589 230.094 9.14315V12.188H230.357C233.517 3.98019 241.283 0.00867773 250.629 0.00867773C266.688 0.00867773 280.773 11.7908 280.773 36.8113C280.773 55.3451 271.427 72.6872 251.155 72.6872C242.336 72.6872 235.754 69.113 232.2 62.891H231.937V88.7058C231.937 95.0604 228.12 98.3698 222.328 98.3698C216.536 98.3698 212.719 95.0604 212.719 88.7058ZM261.554 36.1494C261.554 24.7644 256.552 15.3652 246.285 15.1004C235.096 15.1004 230.884 25.1616 230.884 36.1494C230.884 46.0783 234.57 57.7278 246.285 57.5957C258.527 57.5957 261.554 45.1516 261.554 36.1494ZM349.97 39.9886H308.568C308.568 50.1823 314.841 57.5957 325.505 57.5957C339.306 57.5957 339.306 48.0638 346.708 48.0638C351.099 48.0638 354.236 52.0356 354.236 55.6098C354.236 67.2597 336.546 72.6872 325.505 72.6872C299.911 72.6872 290.25 54.4184 290.25 37.6057C290.25 15.1004 303.173 0.00867773 324.878 0.00867773C345.956 0.00867773 358 15.7624 358 31.6484C358 38.2676 356.118 39.9886 349.97 39.9886ZM309.469 28.8683H341.085C340.097 19.9986 333.922 13.5118 325.895 13.5118C316.879 13.5118 311.445 19.4691 309.469 28.8683Z" fill="#100E2D"/>
<rect y="102" width="358" height="16" rx="8" fill="url(#paint0_linear_4_1625)"/>
</g>
<defs>
<linearGradient id="paint0_linear_4_1625" x1="0" y1="110" x2="352.131" y2="110" gradientUnits="userSpaceOnUse">
<stop stop-color="#5F53BE"/>
<stop offset="0.190555" stop-color="#905AA8"/>
<stop offset="0.398202" stop-color="#D2638D"/>
<stop offset="0.671768" stop-color="#DF8D84"/>
<stop offset="0.86623" stop-color="#E29A82"/>
<stop offset="1" stop-color="#E9C07D"/>
</linearGradient>
<clipPath id="clip0_4_1625">
<rect width="358" height="118" fill="white"/>
</clipPath>
</defs>
</svg>
