<svg width="24" height="24" viewBox="0 0 24 24" fill="none" xmlns="http://www.w3.org/2000/svg">
<g clip-path="url(#clip0_647_886)">
<path d="M15.4815 17.1842C13.5527 18.6825 11.1255 19.3894 8.69385 19.1608C6.26225 18.9323 4.00917 17.7855 2.39338 15.9541C0.777597 14.1227 -0.0794055 11.7442 -0.00312445 9.3031C0.0731566 6.86197 1.07699 4.54169 2.80397 2.81471C4.53095 1.08773 6.85123 0.0838988 9.29235 0.00761774C11.7335 -0.0686633 14.1119 0.788339 15.9433 2.40413C17.7748 4.01991 18.9215 6.27299 19.1501 8.70459C19.3786 11.1362 18.6718 13.5635 17.1735 15.4922L23.5935 21.8882L21.8895 23.5922L15.4935 17.1842H15.4815ZM9.60149 16.8002C10.547 16.8002 11.4833 16.614 12.3568 16.2522C13.2304 15.8903 14.0241 15.36 14.6927 14.6914C15.3612 14.0228 15.8916 13.2291 16.2534 12.3556C16.6153 11.482 16.8015 10.5458 16.8015 9.60024C16.8015 8.65472 16.6153 7.71846 16.2534 6.84492C15.8916 5.97137 15.3612 5.17765 14.6927 4.50907C14.0241 3.84048 13.2304 3.31014 12.3568 2.9483C11.4833 2.58647 10.547 2.40024 9.60149 2.40024C7.69194 2.40024 5.86059 3.1588 4.51032 4.50907C3.16006 5.85933 2.40149 7.69068 2.40149 9.60024C2.40149 11.5098 3.16006 13.3411 4.51032 14.6914C5.86059 16.0417 7.69194 16.8002 9.60149 16.8002Z" fill="#100E2D"/>
</g>
<defs>
<clipPath id="clip0_647_886">
<rect width="24" height="24" fill="white"/>
</clipPath>
</defs>
</svg>
