<svg width="20" height="20" viewBox="0 0 20 20" fill="none" xmlns="http://www.w3.org/2000/svg">
<g clip-path="url(#clip0_610_397)">
<path d="M2.93179 17.0698C1.97669 16.1474 1.21486 15.0439 0.690774 13.8239C0.166684 12.6038 -0.109178 11.2916 -0.120716 9.96385C-0.132254 8.63605 0.120763 7.31926 0.623571 6.09029C1.12638 4.86133 1.86891 3.74481 2.80784 2.80589C3.74677 1.86696 4.86328 1.12443 6.09225 0.621618C7.32121 0.11881 8.63801 -0.134207 9.9658 -0.122669C11.2936 -0.111131 12.6058 0.164731 13.8258 0.688821C15.0459 1.21291 16.1493 1.97473 17.0718 2.92984C18.8934 4.81586 19.9013 7.34188 19.8785 9.96385C19.8557 12.5858 18.8041 15.0939 16.95 16.948C15.0959 18.8021 12.5878 19.8538 9.9658 19.8766C7.34383 19.8994 4.81781 18.8914 2.93179 17.0698ZM15.6618 15.6598C17.1629 14.1587 18.0062 12.1227 18.0062 9.99983C18.0062 7.87692 17.1629 5.84096 15.6618 4.33983C14.1607 2.83871 12.1247 1.99539 10.0018 1.99539C7.87888 1.99539 5.84291 2.83871 4.34179 4.33983C2.84066 5.84096 1.99734 7.87692 1.99734 9.99983C1.99734 12.1227 2.84066 14.1587 4.34179 15.6598C5.84291 17.161 7.87888 18.0043 10.0018 18.0043C12.1247 18.0043 14.1607 17.161 15.6618 15.6598ZM7.00179 5.99983L15.0018 9.99983L7.00179 13.9998V5.99983Z" fill="white"/>
</g>
<defs>
<clipPath id="clip0_610_397">
<rect width="20" height="20" fill="white"/>
</clipPath>
</defs>
</svg>
